
<svg width="27" height="26" viewBox="0 0 27 26" fill="none" xmlns="http://www.w3.org/2000/svg">
<path d="M12.6605 0.155598L2.40246 4.11921C1.48022 4.47492 0.868683 5.3896 0.868683 6.40591V17.8445C0.868683 18.7693 1.37665 19.6129 2.1756 20.0245L12.4336 25.3093C13.0994 25.6548 13.8836 25.6548 14.5494 25.3093L24.8074 20.0245C25.6113 19.6129 26.1143 18.7643 26.1143 17.8445V6.40591C26.1143 5.3896 25.5028 4.48 24.5806 4.12429L14.3225 0.160679C13.7899 -0.0527459 13.1981 -0.0527459 12.6605 0.155598ZM13.494 3.31124L22.9629 6.96996V7.02586L13.494 10.9895L4.02501 7.02586V6.96996L13.494 3.31124ZM15.0721 21.4016V13.8351L22.9629 10.5321V17.3363L15.0721 21.4016Z" fill="white"/>
</svg>