<svg width="27" height="25" viewBox="0 0 27 25" fill="none" xmlns="http://www.w3.org/2000/svg">
<path d="M25.6142 19.3213L19.8391 13.6035C18.6999 12.4756 16.9985 12.2558 15.6274 12.9248L10.3702 7.7197V4.68747L4.05753 -3.05176e-05L0.901209 3.12497L5.63569 9.37497H8.69831L13.9556 14.58C13.2848 15.9375 13.5018 17.622 14.6411 18.75L20.4162 24.4677C21.1362 25.1806 22.3001 25.1806 23.0152 24.4677L25.6142 21.8945C26.3293 21.1816 26.3293 20.0293 25.6142 19.3213ZM17.2598 10.9863C18.6555 10.9863 19.9674 11.5234 20.9537 12.5L21.9105 13.4472C22.6897 13.1103 23.4295 12.6416 24.0706 12.0068C25.9003 10.1953 26.5217 7.64645 25.9397 5.332C25.8312 4.89255 25.2739 4.74118 24.9485 5.06345L21.2792 8.69626L17.9306 8.1445L17.3733 4.82907L21.0425 1.19626C21.368 0.873993 21.2102 0.322235 20.7614 0.20993C18.4237 -0.361359 15.8494 0.253876 14.0246 2.06052C12.6191 3.45212 11.9582 5.28806 11.9927 7.11911L16.0417 11.1279C16.4412 11.0351 16.8554 10.9863 17.2598 10.9863ZM12.1357 14.9902L9.33944 12.2217L1.82345 19.6679C0.590508 20.8886 0.590508 22.8662 1.82345 24.0869C3.05639 25.3076 5.05375 25.3076 6.28669 24.0869L12.3823 18.0517C12.0075 17.08 11.8941 16.0205 12.1357 14.9902ZM4.05753 23.0468C3.40654 23.0468 2.87391 22.5195 2.87391 21.875C2.87391 21.2256 3.40161 20.7031 4.05753 20.7031C4.71346 20.7031 5.24115 21.2256 5.24115 21.875C5.24115 22.5195 4.71346 23.0468 4.05753 23.0468Z" fill="white"/>
</svg>
