<svg width="26" height="25" viewBox="0 0 26 25" fill="none" xmlns="http://www.w3.org/2000/svg">
<path d="M25.0057 21.6162L20.0887 16.748C19.8668 16.5283 19.566 16.4062 19.2503 16.4062H18.4465C19.8076 14.6826 20.6164 12.5146 20.6164 10.1562C20.6164 4.54587 16.025 -3.05176e-05 10.3584 -3.05176e-05C4.69181 -3.05176e-05 0.100342 4.54587 0.100342 10.1562C0.100342 15.7666 4.69181 20.3125 10.3584 20.3125C12.7404 20.3125 14.9301 19.5117 16.671 18.164V18.9599C16.671 19.2724 16.7943 19.5703 17.0163 19.79L21.9332 24.6582C22.3968 25.1172 23.1464 25.1172 23.6051 24.6582L25.0008 23.2763C25.4644 22.8174 25.4644 22.0752 25.0057 21.6162ZM10.3584 16.4062C6.87164 16.4062 4.04575 13.6133 4.04575 10.1562C4.04575 6.70407 6.86671 3.90622 10.3584 3.90622C13.8451 3.90622 16.671 6.69919 16.671 10.1562C16.671 13.6084 13.8501 16.4062 10.3584 16.4062Z" fill="white"/>
</svg>
