<svg width="23" height="25" viewBox="0 0 23 25" fill="none" xmlns="http://www.w3.org/2000/svg">
<path d="M11.3826 25C13.1245 25 14.5375 23.601 14.5375 21.875H8.22777C8.22777 23.601 9.64072 25 11.3826 25ZM22.0051 17.6899C21.0523 16.6762 19.2695 15.1513 19.2695 10.1562C19.2695 6.36227 16.5827 3.32516 12.9598 2.58005V1.56247C12.9598 0.699677 12.2536 -3.05176e-05 11.3826 -3.05176e-05C10.5117 -3.05176e-05 9.80544 0.699677 9.80544 1.56247V2.58005C6.18257 3.32516 3.49575 6.36227 3.49575 10.1562C3.49575 15.1513 1.71292 16.6762 0.760107 17.6899C0.464202 18.0049 0.333017 18.3813 0.335483 18.75C0.340908 19.5508 0.975625 20.3125 1.91858 20.3125H20.8467C21.7896 20.3125 22.4248 19.5508 22.4297 18.75C22.4322 18.3813 22.301 18.0044 22.0051 17.6899Z" fill="white"/>
</svg>
