<svg width="26" height="19" viewBox="0 0 26 19" fill="none" xmlns="http://www.w3.org/2000/svg">
<path d="M25.4196 10.2061L17.1342 18.4092C16.3945 19.1417 15.1122 18.629 15.1122 17.5792V12.8917H8.40502C7.7491 12.8917 7.2214 12.3692 7.2214 11.7198V7.03229C7.2214 6.38287 7.7491 5.86041 8.40502 5.86041H15.1122V1.17291C15.1122 0.127992 16.3895 -0.389587 17.1342 0.342835L25.4196 8.54596C25.8782 9.00494 25.8782 9.74713 25.4196 10.2061ZM10.3777 18.1651V16.212C10.3777 15.8897 10.1114 15.626 9.78591 15.626H5.64324C4.77032 15.626 4.06508 14.9278 4.06508 14.0635V4.68854C4.06508 3.82428 4.77032 3.12604 5.64324 3.12604H9.78591C10.1114 3.12604 10.3777 2.86237 10.3777 2.5401V0.586976C10.3777 0.26471 10.1114 0.0010385 9.78591 0.0010385H5.64324C3.02941 0.0010385 0.908752 2.10065 0.908752 4.68854V14.0635C0.908752 16.6514 3.02941 18.751 5.64324 18.751H9.78591C10.1114 18.751 10.3777 18.4874 10.3777 18.1651Z" fill="white"/>
</svg>
