<svg width="27" height="20" viewBox="0 0 27 20" fill="none" xmlns="http://www.w3.org/2000/svg">
<path d="M24.6384 0.00232652C22.2361 0.137309 17.4613 0.628629 14.5136 2.41509C14.3102 2.53835 14.1949 2.75753 14.1949 2.9867V18.7797C14.1949 19.281 14.7486 19.5978 15.2155 19.3652C18.2482 17.8539 22.6342 17.4416 24.8028 17.3287C25.5432 17.2901 26.1188 16.7024 26.1188 15.998V1.33479C26.1193 0.566129 25.4459 -0.0428124 24.6384 0.00232652ZM12.4739 2.41509C9.52665 0.628629 4.75184 0.137743 2.34952 0.00232652C1.54203 -0.0428124 0.868683 0.566129 0.868683 1.33479V15.9984C0.868683 16.7033 1.44427 17.291 2.18469 17.3291C4.35423 17.442 8.74239 17.8548 11.7751 19.3669C12.2407 19.5991 12.7926 19.2827 12.7926 18.7827V2.97889C12.7926 2.74929 12.6777 2.53878 12.4739 2.41509Z" fill="white"/>
</svg>
